{
    "header": {
      "keySignatures": [
        {
          "key": "G",
          "scale": "major",
          "ticks": 0
        },
        {
          "key": "G",
          "scale": "major",
          "ticks": 3072
        },
        {
          "key": "G",
          "scale": "major",
          "ticks": 6144
        },
        {
          "key": "G",
          "scale": "major",
          "ticks": 9216
        },
        {
          "key": "G",
          "scale": "major",
          "ticks": 12288
        },
        {
          "key": "G",
          "scale": "major",
          "ticks": 15360
        },
        {
          "key": "G",
          "scale": "major",
          "ticks": 18432
        },
        {
          "key": "G",
          "scale": "major",
          "ticks": 21504
        },
        {
          "key": "G",
          "scale": "major",
          "ticks": 24576
        },
        {
          "key": "G",
          "scale": "major",
          "ticks": 27648
        },
        {
          "key": "G",
          "scale": "major",
          "ticks": 30720
        },
        {
          "key": "G",
          "scale": "major",
          "ticks": 33792
        },
        {
          "key": "G",
          "scale": "major",
          "ticks": 36864
        },
        {
          "key": "G",
          "scale": "major",
          "ticks": 39936
        },
        {
          "key": "G",
          "scale": "major",
          "ticks": 43008
        },
        {
          "key": "G",
          "scale": "major",
          "ticks": 46080
        },
        {
          "key": "G",
          "scale": "major",
          "ticks": 49152
        },
        {
          "key": "G",
          "scale": "major",
          "ticks": 52224
        },
        {
          "key": "G",
          "scale": "major",
          "ticks": 55296
        },
        {
          "key": "G",
          "scale": "major",
          "ticks": 58368
        },
        {
          "key": "G",
          "scale": "major",
          "ticks": 61440
        },
        {
          "key": "G",
          "scale": "major",
          "ticks": 64512
        },
        {
          "key": "G",
          "scale": "major",
          "ticks": 67584
        },
        {
          "key": "G",
          "scale": "major",
          "ticks": 70656
        },
        {
          "key": "G",
          "scale": "major",
          "ticks": 73728
        },
        {
          "key": "G",
          "scale": "major",
          "ticks": 76800
        },
        {
          "key": "G",
          "scale": "major",
          "ticks": 79872
        },
        {
          "key": "G",
          "scale": "major",
          "ticks": 82944
        },
        {
          "key": "G",
          "scale": "major",
          "ticks": 86016
        }
      ],
      "meta": [],
      "name": "",
      "ppq": 1024,
      "tempos": [
        {
          "bpm": 76.00006586672374,
          "ticks": 0
        }
      ],
      "timeSignatures": [
        {
          "ticks": 0,
          "timeSignature": [
            3,
            4
          ],
          "measures": 0
        },
        {
          "ticks": 3072,
          "timeSignature": [
            3,
            4
          ],
          "measures": 1
        },
        {
          "ticks": 6144,
          "timeSignature": [
            3,
            4
          ],
          "measures": 2
        },
        {
          "ticks": 9216,
          "timeSignature": [
            3,
            4
          ],
          "measures": 3
        },
        {
          "ticks": 12288,
          "timeSignature": [
            3,
            4
          ],
          "measures": 4
        },
        {
          "ticks": 15360,
          "timeSignature": [
            3,
            4
          ],
          "measures": 5
        },
        {
          "ticks": 18432,
          "timeSignature": [
            3,
            4
          ],
          "measures": 6
        },
        {
          "ticks": 21504,
          "timeSignature": [
            3,
            4
          ],
          "measures": 7
        },
        {
          "ticks": 24576,
          "timeSignature": [
            3,
            4
          ],
          "measures": 8
        },
        {
          "ticks": 27648,
          "timeSignature": [
            3,
            4
          ],
          "measures": 9
        },
        {
          "ticks": 30720,
          "timeSignature": [
            3,
            4
          ],
          "measures": 10
        },
        {
          "ticks": 33792,
          "timeSignature": [
            3,
            4
          ],
          "measures": 11
        },
        {
          "ticks": 36864,
          "timeSignature": [
            3,
            4
          ],
          "measures": 12
        },
        {
          "ticks": 39936,
          "timeSignature": [
            3,
            4
          ],
          "measures": 13
        },
        {
          "ticks": 43008,
          "timeSignature": [
            3,
            4
          ],
          "measures": 14
        },
        {
          "ticks": 46080,
          "timeSignature": [
            3,
            4
          ],
          "measures": 15
        },
        {
          "ticks": 49152,
          "timeSignature": [
            3,
            4
          ],
          "measures": 16
        },
        {
          "ticks": 52224,
          "timeSignature": [
            3,
            4
          ],
          "measures": 17
        },
        {
          "ticks": 55296,
          "timeSignature": [
            3,
            4
          ],
          "measures": 18
        },
        {
          "ticks": 58368,
          "timeSignature": [
            3,
            4
          ],
          "measures": 19
        },
        {
          "ticks": 61440,
          "timeSignature": [
            3,
            4
          ],
          "measures": 20
        },
        {
          "ticks": 64512,
          "timeSignature": [
            3,
            4
          ],
          "measures": 21
        },
        {
          "ticks": 67584,
          "timeSignature": [
            3,
            4
          ],
          "measures": 22
        },
        {
          "ticks": 70656,
          "timeSignature": [
            3,
            4
          ],
          "measures": 23
        },
        {
          "ticks": 73728,
          "timeSignature": [
            3,
            4
          ],
          "measures": 24
        },
        {
          "ticks": 76800,
          "timeSignature": [
            3,
            4
          ],
          "measures": 25
        },
        {
          "ticks": 79872,
          "timeSignature": [
            3,
            4
          ],
          "measures": 26
        },
        {
          "ticks": 82944,
          "timeSignature": [
            3,
            4
          ],
          "measures": 27
        },
        {
          "ticks": 86016,
          "timeSignature": [
            3,
            4
          ],
          "measures": 28
        }
      ]
    },
    "tracks": [
      {
        "channel": 0,
        "controlChanges": {},
        "pitchBends": [],
        "instrument": {
          "family": "piano",
          "number": 0,
          "name": "acoustic grand piano"
        },
        "name": "",
        "notes": [
          {
            "duration": 0.7894730000000001,
            "durationTicks": 1024,
            "midi": 67,
            "name": "G4",
            "ticks": 2048,
            "time": 1.5789460000000002,
            "velocity": 0.5039370078740157
          },
          {
            "duration": 1.5789460000000002,
            "durationTicks": 2048,
            "midi": 67,
            "name": "G4",
            "ticks": 3072,
            "time": 2.3684190000000003,
            "velocity": 0.5039370078740157
          },
          {
            "duration": 0.7894730000000001,
            "durationTicks": 1024,
            "midi": 74,
            "name": "D5",
            "ticks": 5120,
            "time": 3.9473650000000005,
            "velocity": 0.5039370078740157
          },
          {
            "duration": 1.1842094999999997,
            "durationTicks": 1536,
            "midi": 71,
            "name": "B4",
            "ticks": 6144,
            "time": 4.7368380000000005,
            "velocity": 0.5039370078740157
          },
          {
            "duration": 0.3947365000000005,
            "durationTicks": 512,
            "midi": 69,
            "name": "A4",
            "ticks": 7680,
            "time": 5.9210475,
            "velocity": 0.5039370078740157
          },
          {
            "duration": 0.7894730000000001,
            "durationTicks": 1024,
            "midi": 67,
            "name": "G4",
            "ticks": 8192,
            "time": 6.315784000000001,
            "velocity": 0.5039370078740157
          },
          {
            "duration": 1.1842095000000006,
            "durationTicks": 1536,
            "midi": 67,
            "name": "G4",
            "ticks": 9216,
            "time": 7.105257000000001,
            "velocity": 0.5039370078740157
          },
          {
            "duration": 0.3947364999999987,
            "durationTicks": 512,
            "midi": 69,
            "name": "A4",
            "ticks": 10752,
            "time": 8.289466500000001,
            "velocity": 0.5039370078740157
          },
          {
            "duration": 0.789473000000001,
            "durationTicks": 1024,
            "midi": 71,
            "name": "B4",
            "ticks": 11264,
            "time": 8.684203,
            "velocity": 0.5039370078740157
          },
          {
            "duration": 1.5789460000000002,
            "durationTicks": 2048,
            "midi": 69,
            "name": "A4",
            "ticks": 12288,
            "time": 9.473676000000001,
            "velocity": 0.5039370078740157
          },
          {
            "duration": 0.7894729999999992,
            "durationTicks": 1024,
            "midi": 71,
            "name": "B4",
            "ticks": 14336,
            "time": 11.052622000000001,
            "velocity": 0.5039370078740157
          },
          {
            "duration": 1.578946000000002,
            "durationTicks": 2048,
            "midi": 74,
            "name": "D5",
            "ticks": 15360,
            "time": 11.842095,
            "velocity": 0.5039370078740157
          },
          {
            "duration": 0.7894729999999992,
            "durationTicks": 1024,
            "midi": 72,
            "name": "C5",
            "ticks": 17408,
            "time": 13.421041000000002,
            "velocity": 0.5039370078740157
          },
          {
            "duration": 0.7894729999999992,
            "durationTicks": 1024,
            "midi": 71,
            "name": "B4",
            "ticks": 18432,
            "time": 14.210514000000002,
            "velocity": 0.5039370078740157
          },
          {
            "duration": 1.578946000000002,
            "durationTicks": 2048,
            "midi": 69,
            "name": "A4",
            "ticks": 19456,
            "time": 14.999987,
            "velocity": 0.5039370078740157
          },
          {
            "duration": 1.5789459999999984,
            "durationTicks": 2048,
            "midi": 67,
            "name": "G4",
            "ticks": 21504,
            "time": 16.578933000000003,
            "velocity": 0.5039370078740157
          },
          {
            "duration": 0.789473000000001,
            "durationTicks": 1024,
            "midi": 67,
            "name": "G4",
            "ticks": 23552,
            "time": 18.157879,
            "velocity": 0.5039370078740157
          },
          {
            "duration": 1.578946000000002,
            "durationTicks": 2048,
            "midi": 67,
            "name": "G4",
            "ticks": 24576,
            "time": 18.947352000000002,
            "velocity": 0.5039370078740157
          },
          {
            "duration": 0.7894729999999974,
            "durationTicks": 1024,
            "midi": 74,
            "name": "D5",
            "ticks": 26624,
            "time": 20.526298000000004,
            "velocity": 0.5039370078740157
          },
          {
            "duration": 1.1842095000000015,
            "durationTicks": 1536,
            "midi": 71,
            "name": "B4",
            "ticks": 27648,
            "time": 21.315771,
            "velocity": 0.5039370078740157
          },
          {
            "duration": 0.3947365000000005,
            "durationTicks": 512,
            "midi": 69,
            "name": "A4",
            "ticks": 29184,
            "time": 22.499980500000003,
            "velocity": 0.5039370078740157
          },
          {
            "duration": 0.7894729999999974,
            "durationTicks": 1024,
            "midi": 67,
            "name": "G4",
            "ticks": 29696,
            "time": 22.894717000000004,
            "velocity": 0.5039370078740157
          },
          {
            "duration": 1.1842095000000015,
            "durationTicks": 1536,
            "midi": 67,
            "name": "G4",
            "ticks": 30720,
            "time": 23.68419,
            "velocity": 0.5039370078740157
          },
          {
            "duration": 0.3947365000000005,
            "durationTicks": 512,
            "midi": 69,
            "name": "A4",
            "ticks": 32256,
            "time": 24.868399500000002,
            "velocity": 0.5039370078740157
          },
          {
            "duration": 0.789473000000001,
            "durationTicks": 1024,
            "midi": 71,
            "name": "B4",
            "ticks": 32768,
            "time": 25.263136000000003,
            "velocity": 0.5039370078740157
          },
          {
            "duration": 1.5789459999999984,
            "durationTicks": 2048,
            "midi": 69,
            "name": "A4",
            "ticks": 33792,
            "time": 26.052609000000004,
            "velocity": 0.5039370078740157
          },
          {
            "duration": 0.789473000000001,
            "durationTicks": 1024,
            "midi": 71,
            "name": "B4",
            "ticks": 35840,
            "time": 27.631555000000002,
            "velocity": 0.5039370078740157
          },
          {
            "duration": 1.5789459999999984,
            "durationTicks": 2048,
            "midi": 74,
            "name": "D5",
            "ticks": 36864,
            "time": 28.421028000000003,
            "velocity": 0.5039370078740157
          },
          {
            "duration": 0.789473000000001,
            "durationTicks": 1024,
            "midi": 72,
            "name": "C5",
            "ticks": 38912,
            "time": 29.999974,
            "velocity": 0.5039370078740157
          },
          {
            "duration": 0.789473000000001,
            "durationTicks": 1024,
            "midi": 71,
            "name": "B4",
            "ticks": 39936,
            "time": 30.789447000000003,
            "velocity": 0.5039370078740157
          },
          {
            "duration": 1.578946000000002,
            "durationTicks": 2048,
            "midi": 69,
            "name": "A4",
            "ticks": 40960,
            "time": 31.578920000000004,
            "velocity": 0.5039370078740157
          },
          {
            "duration": 1.5789459999999949,
            "durationTicks": 2048,
            "midi": 67,
            "name": "G4",
            "ticks": 43008,
            "time": 33.157866000000006,
            "velocity": 0.5039370078740157
          },
          {
            "duration": 0.789473000000001,
            "durationTicks": 1024,
            "midi": 71,
            "name": "B4",
            "ticks": 45056,
            "time": 34.736812,
            "velocity": 0.5039370078740157
          },
          {
            "duration": 0.789473000000001,
            "durationTicks": 1024,
            "midi": 71,
            "name": "B4",
            "ticks": 46080,
            "time": 35.526285,
            "velocity": 0.5039370078740157
          },
          {
            "duration": 0.789473000000001,
            "durationTicks": 1024,
            "midi": 72,
            "name": "C5",
            "ticks": 47104,
            "time": 36.315758,
            "velocity": 0.5039370078740157
          },
          {
            "duration": 0.789473000000001,
            "durationTicks": 1024,
            "midi": 74,
            "name": "D5",
            "ticks": 48128,
            "time": 37.105231,
            "velocity": 0.5039370078740157
          },
          {
            "duration": 1.1842095000000015,
            "durationTicks": 1536,
            "midi": 74,
            "name": "D5",
            "ticks": 49152,
            "time": 37.894704000000004,
            "velocity": 0.5039370078740157
          },
          {
            "duration": 0.3947365000000005,
            "durationTicks": 512,
            "midi": 72,
            "name": "C5",
            "ticks": 50688,
            "time": 39.078913500000006,
            "velocity": 0.5039370078740157
          },
          {
            "duration": 0.789473000000001,
            "durationTicks": 1024,
            "midi": 71,
            "name": "B4",
            "ticks": 51200,
            "time": 39.473650000000006,
            "velocity": 0.5039370078740157
          },
          {
            "duration": 1.5789459999999949,
            "durationTicks": 2048,
            "midi": 69,
            "name": "A4",
            "ticks": 52224,
            "time": 40.26312300000001,
            "velocity": 0.5039370078740157
          },
          {
            "duration": 0.789473000000001,
            "durationTicks": 1024,
            "midi": 67,
            "name": "G4",
            "ticks": 54272,
            "time": 41.842069,
            "velocity": 0.5039370078740157
          },
          {
            "duration": 1.578946000000002,
            "durationTicks": 2048,
            "midi": 71,
            "name": "B4",
            "ticks": 55296,
            "time": 42.631542,
            "velocity": 0.5039370078740157
          },
          {
            "duration": 0.789473000000001,
            "durationTicks": 1024,
            "midi": 72,
            "name": "C5",
            "ticks": 57344,
            "time": 44.210488000000005,
            "velocity": 0.5039370078740157
          },
          {
            "duration": 1.578946000000002,
            "durationTicks": 2048,
            "midi": 74,
            "name": "D5",
            "ticks": 58368,
            "time": 44.999961000000006,
            "velocity": 0.5039370078740157
          },
          {
            "duration": 0.7894729999999939,
            "durationTicks": 1024,
            "midi": 72,
            "name": "C5",
            "ticks": 60416,
            "time": 46.57890700000001,
            "velocity": 0.5039370078740157
          },
          {
            "duration": 2.368419000000003,
            "durationTicks": 3072,
            "midi": 71,
            "name": "B4",
            "ticks": 61440,
            "time": 47.36838,
            "velocity": 0.5039370078740157
          },
          {
            "duration": 1.578946000000002,
            "durationTicks": 2048,
            "midi": 67,
            "name": "G4",
            "ticks": 64512,
            "time": 49.736799000000005,
            "velocity": 0.5039370078740157
          },
          {
            "duration": 0.789473000000001,
            "durationTicks": 1024,
            "midi": 71,
            "name": "B4",
            "ticks": 66560,
            "time": 51.31574500000001,
            "velocity": 0.5039370078740157
          },
          {
            "duration": 1.578946000000002,
            "durationTicks": 2048,
            "midi": 74,
            "name": "D5",
            "ticks": 67584,
            "time": 52.10521800000001,
            "velocity": 0.5039370078740157
          },
          {
            "duration": 0.7894729999999939,
            "durationTicks": 1024,
            "midi": 72,
            "name": "C5",
            "ticks": 69632,
            "time": 53.68416400000001,
            "velocity": 0.5039370078740157
          },
          {
            "duration": 1.578946000000002,
            "durationTicks": 2048,
            "midi": 71,
            "name": "B4",
            "ticks": 70656,
            "time": 54.473637000000004,
            "velocity": 0.5039370078740157
          },
          {
            "duration": 0.789473000000001,
            "durationTicks": 1024,
            "midi": 69,
            "name": "A4",
            "ticks": 72704,
            "time": 56.052583000000006,
            "velocity": 0.5039370078740157
          },
          {
            "duration": 1.1842095000000015,
            "durationTicks": 1536,
            "midi": 67,
            "name": "G4",
            "ticks": 73728,
            "time": 56.84205600000001,
            "velocity": 0.5039370078740157
          },
          {
            "duration": 0.3947365000000005,
            "durationTicks": 512,
            "midi": 69,
            "name": "A4",
            "ticks": 75264,
            "time": 58.02626550000001,
            "velocity": 0.5039370078740157
          },
          {
            "duration": 0.789473000000001,
            "durationTicks": 1024,
            "midi": 71,
            "name": "B4",
            "ticks": 75776,
            "time": 58.42100200000001,
            "velocity": 0.5039370078740157
          },
          {
            "duration": 1.5789459999999949,
            "durationTicks": 2048,
            "midi": 69,
            "name": "A4",
            "ticks": 76800,
            "time": 59.21047500000001,
            "velocity": 0.5039370078740157
          },
          {
            "duration": 0.789473000000001,
            "durationTicks": 1024,
            "midi": 71,
            "name": "B4",
            "ticks": 78848,
            "time": 60.789421000000004,
            "velocity": 0.5039370078740157
          },
          {
            "duration": 1.578946000000002,
            "durationTicks": 2048,
            "midi": 74,
            "name": "D5",
            "ticks": 79872,
            "time": 61.578894000000005,
            "velocity": 0.5039370078740157
          },
          {
            "duration": 0.789473000000001,
            "durationTicks": 1024,
            "midi": 72,
            "name": "C5",
            "ticks": 81920,
            "time": 63.15784000000001,
            "velocity": 0.5039370078740157
          },
          {
            "duration": 0.789473000000001,
            "durationTicks": 1024,
            "midi": 71,
            "name": "B4",
            "ticks": 82944,
            "time": 63.94731300000001,
            "velocity": 0.5039370078740157
          },
          {
            "duration": 1.578946000000002,
            "durationTicks": 2048,
            "midi": 69,
            "name": "A4",
            "ticks": 83968,
            "time": 64.73678600000001,
            "velocity": 0.5039370078740157
          },
          {
            "duration": 1.578946000000002,
            "durationTicks": 2048,
            "midi": 67,
            "name": "G4",
            "ticks": 86016,
            "time": 66.31573200000001,
            "velocity": 0.5039370078740157
          }
        ],
        "endOfTrackTicks": 88064
      },
      {
        "channel": 1,
        "controlChanges": {},
        "pitchBends": [],
        "instrument": {
          "family": "piano",
          "number": 0,
          "name": "acoustic grand piano"
        },
        "name": "",
        "notes": [
          {
            "duration": 0.7894730000000001,
            "durationTicks": 1024,
            "midi": 62,
            "name": "D4",
            "ticks": 2048,
            "time": 1.5789460000000002,
            "velocity": 0.5039370078740157
          },
          {
            "duration": 0.7894730000000001,
            "durationTicks": 1024,
            "midi": 62,
            "name": "D4",
            "ticks": 3072,
            "time": 2.3684190000000003,
            "velocity": 0.5039370078740157
          },
          {
            "duration": 0.7894730000000001,
            "durationTicks": 1024,
            "midi": 64,
            "name": "E4",
            "ticks": 4096,
            "time": 3.1578920000000004,
            "velocity": 0.5039370078740157
          },
          {
            "duration": 0.7894730000000001,
            "durationTicks": 1024,
            "midi": 62,
            "name": "D4",
            "ticks": 5120,
            "time": 3.9473650000000005,
            "velocity": 0.5039370078740157
          },
          {
            "duration": 1.5789460000000002,
            "durationTicks": 2048,
            "midi": 62,
            "name": "D4",
            "ticks": 6144,
            "time": 4.7368380000000005,
            "velocity": 0.5039370078740157
          },
          {
            "duration": 0.7894730000000001,
            "durationTicks": 1024,
            "midi": 59,
            "name": "B3",
            "ticks": 8192,
            "time": 6.315784000000001,
            "velocity": 0.5039370078740157
          },
          {
            "duration": 0.3947364999999996,
            "durationTicks": 512,
            "midi": 64,
            "name": "E4",
            "ticks": 9216,
            "time": 7.105257000000001,
            "velocity": 0.5039370078740157
          },
          {
            "duration": 0.3947365000000005,
            "durationTicks": 512,
            "midi": 62,
            "name": "D4",
            "ticks": 9728,
            "time": 7.4999935,
            "velocity": 0.5039370078740157
          },
          {
            "duration": 0.3947365000000005,
            "durationTicks": 512,
            "midi": 64,
            "name": "E4",
            "ticks": 10240,
            "time": 7.894730000000001,
            "velocity": 0.5039370078740157
          },
          {
            "duration": 0.3947364999999987,
            "durationTicks": 512,
            "midi": 66,
            "name": "F#4",
            "ticks": 10752,
            "time": 8.289466500000001,
            "velocity": 0.5039370078740157
          },
          {
            "duration": 0.789473000000001,
            "durationTicks": 1024,
            "midi": 67,
            "name": "G4",
            "ticks": 11264,
            "time": 8.684203,
            "velocity": 0.5039370078740157
          },
          {
            "duration": 1.5789460000000002,
            "durationTicks": 2048,
            "midi": 66,
            "name": "F#4",
            "ticks": 12288,
            "time": 9.473676000000001,
            "velocity": 0.5039370078740157
          },
          {
            "duration": 0.7894729999999992,
            "durationTicks": 1024,
            "midi": 67,
            "name": "G4",
            "ticks": 14336,
            "time": 11.052622000000001,
            "velocity": 0.5039370078740157
          },
          {
            "duration": 0.789473000000001,
            "durationTicks": 1024,
            "midi": 62,
            "name": "D4",
            "ticks": 15360,
            "time": 11.842095,
            "velocity": 0.5039370078740157
          },
          {
            "duration": 0.789473000000001,
            "durationTicks": 1024,
            "midi": 64,
            "name": "E4",
            "ticks": 16384,
            "time": 12.631568000000001,
            "velocity": 0.5039370078740157
          },
          {
            "duration": 0.7894729999999992,
            "durationTicks": 1024,
            "midi": 66,
            "name": "F#4",
            "ticks": 17408,
            "time": 13.421041000000002,
            "velocity": 0.5039370078740157
          },
          {
            "duration": 1.5789460000000002,
            "durationTicks": 2048,
            "midi": 67,
            "name": "G4",
            "ticks": 18432,
            "time": 14.210514000000002,
            "velocity": 0.5039370078740157
          },
          {
            "duration": 0.789473000000001,
            "durationTicks": 1024,
            "midi": 66,
            "name": "F#4",
            "ticks": 20480,
            "time": 15.789460000000002,
            "velocity": 0.5039370078740157
          },
          {
            "duration": 1.5789459999999984,
            "durationTicks": 2048,
            "midi": 62,
            "name": "D4",
            "ticks": 21504,
            "time": 16.578933000000003,
            "velocity": 0.5039370078740157
          },
          {
            "duration": 0.789473000000001,
            "durationTicks": 1024,
            "midi": 62,
            "name": "D4",
            "ticks": 23552,
            "time": 18.157879,
            "velocity": 0.5039370078740157
          },
          {
            "duration": 0.789473000000001,
            "durationTicks": 1024,
            "midi": 62,
            "name": "D4",
            "ticks": 24576,
            "time": 18.947352000000002,
            "velocity": 0.5039370078740157
          },
          {
            "duration": 0.789473000000001,
            "durationTicks": 1024,
            "midi": 64,
            "name": "E4",
            "ticks": 25600,
            "time": 19.736825000000003,
            "velocity": 0.5039370078740157
          },
          {
            "duration": 0.7894729999999974,
            "durationTicks": 1024,
            "midi": 62,
            "name": "D4",
            "ticks": 26624,
            "time": 20.526298000000004,
            "velocity": 0.5039370078740157
          },
          {
            "duration": 1.578946000000002,
            "durationTicks": 2048,
            "midi": 62,
            "name": "D4",
            "ticks": 27648,
            "time": 21.315771,
            "velocity": 0.5039370078740157
          },
          {
            "duration": 0.7894729999999974,
            "durationTicks": 1024,
            "midi": 59,
            "name": "B3",
            "ticks": 29696,
            "time": 22.894717000000004,
            "velocity": 0.5039370078740157
          },
          {
            "duration": 0.3947365000000005,
            "durationTicks": 512,
            "midi": 64,
            "name": "E4",
            "ticks": 30720,
            "time": 23.68419,
            "velocity": 0.5039370078740157
          },
          {
            "duration": 0.3947365000000005,
            "durationTicks": 512,
            "midi": 62,
            "name": "D4",
            "ticks": 31232,
            "time": 24.0789265,
            "velocity": 0.5039370078740157
          },
          {
            "duration": 0.3947365000000005,
            "durationTicks": 512,
            "midi": 64,
            "name": "E4",
            "ticks": 31744,
            "time": 24.473663000000002,
            "velocity": 0.5039370078740157
          },
          {
            "duration": 0.3947365000000005,
            "durationTicks": 512,
            "midi": 66,
            "name": "F#4",
            "ticks": 32256,
            "time": 24.868399500000002,
            "velocity": 0.5039370078740157
          },
          {
            "duration": 0.789473000000001,
            "durationTicks": 1024,
            "midi": 67,
            "name": "G4",
            "ticks": 32768,
            "time": 25.263136000000003,
            "velocity": 0.5039370078740157
          },
          {
            "duration": 1.5789459999999984,
            "durationTicks": 2048,
            "midi": 66,
            "name": "F#4",
            "ticks": 33792,
            "time": 26.052609000000004,
            "velocity": 0.5039370078740157
          },
          {
            "duration": 0.789473000000001,
            "durationTicks": 1024,
            "midi": 67,
            "name": "G4",
            "ticks": 35840,
            "time": 27.631555000000002,
            "velocity": 0.5039370078740157
          },
          {
            "duration": 0.789473000000001,
            "durationTicks": 1024,
            "midi": 62,
            "name": "D4",
            "ticks": 36864,
            "time": 28.421028000000003,
            "velocity": 0.5039370078740157
          },
          {
            "duration": 0.7894729999999974,
            "durationTicks": 1024,
            "midi": 64,
            "name": "E4",
            "ticks": 37888,
            "time": 29.210501000000004,
            "velocity": 0.5039370078740157
          },
          {
            "duration": 0.789473000000001,
            "durationTicks": 1024,
            "midi": 66,
            "name": "F#4",
            "ticks": 38912,
            "time": 29.999974,
            "velocity": 0.5039370078740157
          },
          {
            "duration": 1.578946000000002,
            "durationTicks": 2048,
            "midi": 67,
            "name": "G4",
            "ticks": 39936,
            "time": 30.789447000000003,
            "velocity": 0.5039370078740157
          },
          {
            "duration": 0.789473000000001,
            "durationTicks": 1024,
            "midi": 66,
            "name": "F#4",
            "ticks": 41984,
            "time": 32.368393000000005,
            "velocity": 0.5039370078740157
          },
          {
            "duration": 1.5789459999999949,
            "durationTicks": 2048,
            "midi": 62,
            "name": "D4",
            "ticks": 43008,
            "time": 33.157866000000006,
            "velocity": 0.5039370078740157
          },
          {
            "duration": 1.1842095000000015,
            "durationTicks": 1536,
            "midi": 67,
            "name": "G4",
            "ticks": 45056,
            "time": 34.736812,
            "velocity": 0.5039370078740157
          },
          {
            "duration": 0.3947365000000005,
            "durationTicks": 512,
            "midi": 66,
            "name": "F#4",
            "ticks": 46592,
            "time": 35.9210215,
            "velocity": 0.5039370078740157
          },
          {
            "duration": 0.3947365000000005,
            "durationTicks": 512,
            "midi": 64,
            "name": "E4",
            "ticks": 47104,
            "time": 36.315758,
            "velocity": 0.5039370078740157
          },
          {
            "duration": 0.3947365000000005,
            "durationTicks": 512,
            "midi": 66,
            "name": "F#4",
            "ticks": 47616,
            "time": 36.7104945,
            "velocity": 0.5039370078740157
          },
          {
            "duration": 1.1842095000000015,
            "durationTicks": 1536,
            "midi": 67,
            "name": "G4",
            "ticks": 48128,
            "time": 37.105231,
            "velocity": 0.5039370078740157
          },
          {
            "duration": 0.3947365000000005,
            "durationTicks": 512,
            "midi": 69,
            "name": "A4",
            "ticks": 49664,
            "time": 38.289440500000005,
            "velocity": 0.5039370078740157
          },
          {
            "duration": 0.3947365000000005,
            "durationTicks": 512,
            "midi": 67,
            "name": "G4",
            "ticks": 50176,
            "time": 38.684177000000005,
            "velocity": 0.5039370078740157
          },
          {
            "duration": 0.3947365000000005,
            "durationTicks": 512,
            "midi": 66,
            "name": "F#4",
            "ticks": 50688,
            "time": 39.078913500000006,
            "velocity": 0.5039370078740157
          },
          {
            "duration": 0.789473000000001,
            "durationTicks": 1024,
            "midi": 67,
            "name": "G4",
            "ticks": 51200,
            "time": 39.473650000000006,
            "velocity": 0.5039370078740157
          },
          {
            "duration": 1.5789459999999949,
            "durationTicks": 2048,
            "midi": 66,
            "name": "F#4",
            "ticks": 52224,
            "time": 40.26312300000001,
            "velocity": 0.5039370078740157
          },
          {
            "duration": 0.789473000000001,
            "durationTicks": 1024,
            "midi": 64,
            "name": "E4",
            "ticks": 54272,
            "time": 41.842069,
            "velocity": 0.5039370078740157
          },
          {
            "duration": 0.789473000000001,
            "durationTicks": 1024,
            "midi": 64,
            "name": "E4",
            "ticks": 55296,
            "time": 42.631542,
            "velocity": 0.5039370078740157
          },
          {
            "duration": 0.3947365000000005,
            "durationTicks": 512,
            "midi": 66,
            "name": "F#4",
            "ticks": 56320,
            "time": 43.421015000000004,
            "velocity": 0.5039370078740157
          },
          {
            "duration": 0.3947365000000005,
            "durationTicks": 512,
            "midi": 67,
            "name": "G4",
            "ticks": 56832,
            "time": 43.815751500000005,
            "velocity": 0.5039370078740157
          },
          {
            "duration": 0.789473000000001,
            "durationTicks": 1024,
            "midi": 69,
            "name": "A4",
            "ticks": 57344,
            "time": 44.210488000000005,
            "velocity": 0.5039370078740157
          },
          {
            "duration": 0.789473000000001,
            "durationTicks": 1024,
            "midi": 69,
            "name": "A4",
            "ticks": 58368,
            "time": 44.999961000000006,
            "velocity": 0.5039370078740157
          },
          {
            "duration": 1.1842095000000015,
            "durationTicks": 1536,
            "midi": 67,
            "name": "G4",
            "ticks": 59392,
            "time": 45.78943400000001,
            "velocity": 0.5039370078740157
          },
          {
            "duration": 0.3947364999999934,
            "durationTicks": 512,
            "midi": 66,
            "name": "F#4",
            "ticks": 60928,
            "time": 46.97364350000001,
            "velocity": 0.5039370078740157
          },
          {
            "duration": 1.578946000000002,
            "durationTicks": 2048,
            "midi": 67,
            "name": "G4",
            "ticks": 61440,
            "time": 47.36838,
            "velocity": 0.5039370078740157
          },
          {
            "duration": 0.789473000000001,
            "durationTicks": 1024,
            "midi": 65,
            "name": "F4",
            "ticks": 63488,
            "time": 48.947326000000004,
            "velocity": 0.5039370078740157
          },
          {
            "duration": 1.578946000000002,
            "durationTicks": 2048,
            "midi": 64,
            "name": "E4",
            "ticks": 64512,
            "time": 49.736799000000005,
            "velocity": 0.5039370078740157
          },
          {
            "duration": 0.789473000000001,
            "durationTicks": 1024,
            "midi": 67,
            "name": "G4",
            "ticks": 66560,
            "time": 51.31574500000001,
            "velocity": 0.5039370078740157
          },
          {
            "duration": 1.1842095000000015,
            "durationTicks": 1536,
            "midi": 69,
            "name": "A4",
            "ticks": 67584,
            "time": 52.10521800000001,
            "velocity": 0.5039370078740157
          },
          {
            "duration": 0.3947365000000005,
            "durationTicks": 512,
            "midi": 67,
            "name": "G4",
            "ticks": 69120,
            "time": 53.28942750000001,
            "velocity": 0.5039370078740157
          },
          {
            "duration": 0.7894729999999939,
            "durationTicks": 1024,
            "midi": 66,
            "name": "F#4",
            "ticks": 69632,
            "time": 53.68416400000001,
            "velocity": 0.5039370078740157
          },
          {
            "duration": 1.578946000000002,
            "durationTicks": 2048,
            "midi": 67,
            "name": "G4",
            "ticks": 70656,
            "time": 54.473637000000004,
            "velocity": 0.5039370078740157
          },
          {
            "duration": 0.789473000000001,
            "durationTicks": 1024,
            "midi": 66,
            "name": "F#4",
            "ticks": 72704,
            "time": 56.052583000000006,
            "velocity": 0.5039370078740157
          },
          {
            "duration": 0.3947365000000005,
            "durationTicks": 512,
            "midi": 66,
            "name": "F#4",
            "ticks": 73728,
            "time": 56.84205600000001,
            "velocity": 0.5039370078740157
          },
          {
            "duration": 0.3947365000000005,
            "durationTicks": 512,
            "midi": 64,
            "name": "E4",
            "ticks": 74240,
            "time": 57.23679250000001,
            "velocity": 0.5039370078740157
          },
          {
            "duration": 0.3947365000000005,
            "durationTicks": 512,
            "midi": 64,
            "name": "E4",
            "ticks": 74752,
            "time": 57.63152900000001,
            "velocity": 0.5039370078740157
          },
          {
            "duration": 0.3947365000000005,
            "durationTicks": 512,
            "midi": 66,
            "name": "F#4",
            "ticks": 75264,
            "time": 58.02626550000001,
            "velocity": 0.5039370078740157
          },
          {
            "duration": 0.789473000000001,
            "durationTicks": 1024,
            "midi": 67,
            "name": "G4",
            "ticks": 75776,
            "time": 58.42100200000001,
            "velocity": 0.5039370078740157
          },
          {
            "duration": 1.5789459999999949,
            "durationTicks": 2048,
            "midi": 66,
            "name": "F#4",
            "ticks": 76800,
            "time": 59.21047500000001,
            "velocity": 0.5039370078740157
          },
          {
            "duration": 0.789473000000001,
            "durationTicks": 1024,
            "midi": 67,
            "name": "G4",
            "ticks": 78848,
            "time": 60.789421000000004,
            "velocity": 0.5039370078740157
          },
          {
            "duration": 1.578946000000002,
            "durationTicks": 2048,
            "midi": 69,
            "name": "A4",
            "ticks": 79872,
            "time": 61.578894000000005,
            "velocity": 0.5039370078740157
          },
          {
            "duration": 0.3947365000000005,
            "durationTicks": 512,
            "midi": 67,
            "name": "G4",
            "ticks": 81920,
            "time": 63.15784000000001,
            "velocity": 0.5039370078740157
          },
          {
            "duration": 0.3947365000000005,
            "durationTicks": 512,
            "midi": 66,
            "name": "F#4",
            "ticks": 82432,
            "time": 63.55257650000001,
            "velocity": 0.5039370078740157
          },
          {
            "duration": 1.578946000000002,
            "durationTicks": 2048,
            "midi": 67,
            "name": "G4",
            "ticks": 82944,
            "time": 63.94731300000001,
            "velocity": 0.5039370078740157
          },
          {
            "duration": 0.789473000000001,
            "durationTicks": 1024,
            "midi": 66,
            "name": "F#4",
            "ticks": 84992,
            "time": 65.52625900000001,
            "velocity": 0.5039370078740157
          },
          {
            "duration": 1.578946000000002,
            "durationTicks": 2048,
            "midi": 62,
            "name": "D4",
            "ticks": 86016,
            "time": 66.31573200000001,
            "velocity": 0.5039370078740157
          }
        ],
        "endOfTrackTicks": 88064
      },
      {
        "channel": 2,
        "controlChanges": {},
        "pitchBends": [],
        "instrument": {
          "family": "piano",
          "number": 0,
          "name": "acoustic grand piano"
        },
        "name": "",
        "notes": [
          {
            "duration": 0.7894730000000001,
            "durationTicks": 1024,
            "midi": 59,
            "name": "B3",
            "ticks": 2048,
            "time": 1.5789460000000002,
            "velocity": 0.5039370078740157
          },
          {
            "duration": 0.7894730000000001,
            "durationTicks": 1024,
            "midi": 59,
            "name": "B3",
            "ticks": 3072,
            "time": 2.3684190000000003,
            "velocity": 0.5039370078740157
          },
          {
            "duration": 0.39473650000000005,
            "durationTicks": 512,
            "midi": 60,
            "name": "C4",
            "ticks": 4096,
            "time": 3.1578920000000004,
            "velocity": 0.5039370078740157
          },
          {
            "duration": 0.39473650000000005,
            "durationTicks": 512,
            "midi": 59,
            "name": "B3",
            "ticks": 4608,
            "time": 3.5526285000000004,
            "velocity": 0.5039370078740157
          },
          {
            "duration": 0.7894730000000001,
            "durationTicks": 1024,
            "midi": 57,
            "name": "A3",
            "ticks": 5120,
            "time": 3.9473650000000005,
            "velocity": 0.5039370078740157
          },
          {
            "duration": 0.7894730000000001,
            "durationTicks": 1024,
            "midi": 55,
            "name": "G3",
            "ticks": 6144,
            "time": 4.7368380000000005,
            "velocity": 0.5039370078740157
          },
          {
            "duration": 0.7894730000000001,
            "durationTicks": 1024,
            "midi": 54,
            "name": "F#3",
            "ticks": 7168,
            "time": 5.526311000000001,
            "velocity": 0.5039370078740157
          },
          {
            "duration": 0.7894730000000001,
            "durationTicks": 1024,
            "midi": 55,
            "name": "G3",
            "ticks": 8192,
            "time": 6.315784000000001,
            "velocity": 0.5039370078740157
          },
          {
            "duration": 0.3947364999999996,
            "durationTicks": 512,
            "midi": 60,
            "name": "C4",
            "ticks": 9216,
            "time": 7.105257000000001,
            "velocity": 0.5039370078740157
          },
          {
            "duration": 0.3947365000000005,
            "durationTicks": 512,
            "midi": 59,
            "name": "B3",
            "ticks": 9728,
            "time": 7.4999935,
            "velocity": 0.5039370078740157
          },
          {
            "duration": 0.7894729999999992,
            "durationTicks": 1024,
            "midi": 60,
            "name": "C4",
            "ticks": 10240,
            "time": 7.894730000000001,
            "velocity": 0.5039370078740157
          },
          {
            "duration": 0.789473000000001,
            "durationTicks": 1024,
            "midi": 62,
            "name": "D4",
            "ticks": 11264,
            "time": 8.684203,
            "velocity": 0.5039370078740157
          },
          {
            "duration": 1.5789460000000002,
            "durationTicks": 2048,
            "midi": 62,
            "name": "D4",
            "ticks": 12288,
            "time": 9.473676000000001,
            "velocity": 0.5039370078740157
          },
          {
            "duration": 0.7894729999999992,
            "durationTicks": 1024,
            "midi": 62,
            "name": "D4",
            "ticks": 14336,
            "time": 11.052622000000001,
            "velocity": 0.5039370078740157
          },
          {
            "duration": 0.789473000000001,
            "durationTicks": 1024,
            "midi": 57,
            "name": "A3",
            "ticks": 15360,
            "time": 11.842095,
            "velocity": 0.5039370078740157
          },
          {
            "duration": 0.789473000000001,
            "durationTicks": 1024,
            "midi": 59,
            "name": "B3",
            "ticks": 16384,
            "time": 12.631568000000001,
            "velocity": 0.5039370078740157
          },
          {
            "duration": 0.7894729999999992,
            "durationTicks": 1024,
            "midi": 60,
            "name": "C4",
            "ticks": 17408,
            "time": 13.421041000000002,
            "velocity": 0.5039370078740157
          },
          {
            "duration": 0.7894729999999992,
            "durationTicks": 1024,
            "midi": 62,
            "name": "D4",
            "ticks": 18432,
            "time": 14.210514000000002,
            "velocity": 0.5039370078740157
          },
          {
            "duration": 0.789473000000001,
            "durationTicks": 1024,
            "midi": 64,
            "name": "E4",
            "ticks": 19456,
            "time": 14.999987,
            "velocity": 0.5039370078740157
          },
          {
            "duration": 0.3947365000000005,
            "durationTicks": 512,
            "midi": 62,
            "name": "D4",
            "ticks": 20480,
            "time": 15.789460000000002,
            "velocity": 0.5039370078740157
          },
          {
            "duration": 0.3947365000000005,
            "durationTicks": 512,
            "midi": 60,
            "name": "C4",
            "ticks": 20992,
            "time": 16.184196500000002,
            "velocity": 0.5039370078740157
          },
          {
            "duration": 1.5789459999999984,
            "durationTicks": 2048,
            "midi": 59,
            "name": "B3",
            "ticks": 21504,
            "time": 16.578933000000003,
            "velocity": 0.5039370078740157
          },
          {
            "duration": 0.789473000000001,
            "durationTicks": 1024,
            "midi": 59,
            "name": "B3",
            "ticks": 23552,
            "time": 18.157879,
            "velocity": 0.5039370078740157
          },
          {
            "duration": 0.789473000000001,
            "durationTicks": 1024,
            "midi": 59,
            "name": "B3",
            "ticks": 24576,
            "time": 18.947352000000002,
            "velocity": 0.5039370078740157
          },
          {
            "duration": 0.3947365000000005,
            "durationTicks": 512,
            "midi": 60,
            "name": "C4",
            "ticks": 25600,
            "time": 19.736825000000003,
            "velocity": 0.5039370078740157
          },
          {
            "duration": 0.3947365000000005,
            "durationTicks": 512,
            "midi": 59,
            "name": "B3",
            "ticks": 26112,
            "time": 20.131561500000004,
            "velocity": 0.5039370078740157
          },
          {
            "duration": 0.7894729999999974,
            "durationTicks": 1024,
            "midi": 57,
            "name": "A3",
            "ticks": 26624,
            "time": 20.526298000000004,
            "velocity": 0.5039370078740157
          },
          {
            "duration": 0.789473000000001,
            "durationTicks": 1024,
            "midi": 55,
            "name": "G3",
            "ticks": 27648,
            "time": 21.315771,
            "velocity": 0.5039370078740157
          },
          {
            "duration": 0.789473000000001,
            "durationTicks": 1024,
            "midi": 54,
            "name": "F#3",
            "ticks": 28672,
            "time": 22.105244000000003,
            "velocity": 0.5039370078740157
          },
          {
            "duration": 0.7894729999999974,
            "durationTicks": 1024,
            "midi": 55,
            "name": "G3",
            "ticks": 29696,
            "time": 22.894717000000004,
            "velocity": 0.5039370078740157
          },
          {
            "duration": 0.3947365000000005,
            "durationTicks": 512,
            "midi": 60,
            "name": "C4",
            "ticks": 30720,
            "time": 23.68419,
            "velocity": 0.5039370078740157
          },
          {
            "duration": 0.3947365000000005,
            "durationTicks": 512,
            "midi": 59,
            "name": "B3",
            "ticks": 31232,
            "time": 24.0789265,
            "velocity": 0.5039370078740157
          },
          {
            "duration": 0.789473000000001,
            "durationTicks": 1024,
            "midi": 60,
            "name": "C4",
            "ticks": 31744,
            "time": 24.473663000000002,
            "velocity": 0.5039370078740157
          },
          {
            "duration": 0.789473000000001,
            "durationTicks": 1024,
            "midi": 62,
            "name": "D4",
            "ticks": 32768,
            "time": 25.263136000000003,
            "velocity": 0.5039370078740157
          },
          {
            "duration": 1.5789459999999984,
            "durationTicks": 2048,
            "midi": 62,
            "name": "D4",
            "ticks": 33792,
            "time": 26.052609000000004,
            "velocity": 0.5039370078740157
          },
          {
            "duration": 0.789473000000001,
            "durationTicks": 1024,
            "midi": 62,
            "name": "D4",
            "ticks": 35840,
            "time": 27.631555000000002,
            "velocity": 0.5039370078740157
          },
          {
            "duration": 0.789473000000001,
            "durationTicks": 1024,
            "midi": 57,
            "name": "A3",
            "ticks": 36864,
            "time": 28.421028000000003,
            "velocity": 0.5039370078740157
          },
          {
            "duration": 0.7894729999999974,
            "durationTicks": 1024,
            "midi": 59,
            "name": "B3",
            "ticks": 37888,
            "time": 29.210501000000004,
            "velocity": 0.5039370078740157
          },
          {
            "duration": 0.789473000000001,
            "durationTicks": 1024,
            "midi": 60,
            "name": "C4",
            "ticks": 38912,
            "time": 29.999974,
            "velocity": 0.5039370078740157
          },
          {
            "duration": 0.789473000000001,
            "durationTicks": 1024,
            "midi": 62,
            "name": "D4",
            "ticks": 39936,
            "time": 30.789447000000003,
            "velocity": 0.5039370078740157
          },
          {
            "duration": 0.789473000000001,
            "durationTicks": 1024,
            "midi": 64,
            "name": "E4",
            "ticks": 40960,
            "time": 31.578920000000004,
            "velocity": 0.5039370078740157
          },
          {
            "duration": 0.3947365000000005,
            "durationTicks": 512,
            "midi": 62,
            "name": "D4",
            "ticks": 41984,
            "time": 32.368393000000005,
            "velocity": 0.5039370078740157
          },
          {
            "duration": 0.3947365000000005,
            "durationTicks": 512,
            "midi": 60,
            "name": "C4",
            "ticks": 42496,
            "time": 32.763129500000005,
            "velocity": 0.5039370078740157
          },
          {
            "duration": 1.5789459999999949,
            "durationTicks": 2048,
            "midi": 59,
            "name": "B3",
            "ticks": 43008,
            "time": 33.157866000000006,
            "velocity": 0.5039370078740157
          },
          {
            "duration": 0.789473000000001,
            "durationTicks": 1024,
            "midi": 62,
            "name": "D4",
            "ticks": 45056,
            "time": 34.736812,
            "velocity": 0.5039370078740157
          },
          {
            "duration": 0.789473000000001,
            "durationTicks": 1024,
            "midi": 62,
            "name": "D4",
            "ticks": 46080,
            "time": 35.526285,
            "velocity": 0.5039370078740157
          },
          {
            "duration": 0.789473000000001,
            "durationTicks": 1024,
            "midi": 60,
            "name": "C4",
            "ticks": 47104,
            "time": 36.315758,
            "velocity": 0.5039370078740157
          },
          {
            "duration": 0.3947365000000005,
            "durationTicks": 512,
            "midi": 59,
            "name": "B3",
            "ticks": 48128,
            "time": 37.105231,
            "velocity": 0.5039370078740157
          },
          {
            "duration": 0.3947365000000005,
            "durationTicks": 512,
            "midi": 57,
            "name": "A3",
            "ticks": 48640,
            "time": 37.499967500000004,
            "velocity": 0.5039370078740157
          },
          {
            "duration": 0.3947365000000005,
            "durationTicks": 512,
            "midi": 59,
            "name": "B3",
            "ticks": 49152,
            "time": 37.894704000000004,
            "velocity": 0.5039370078740157
          },
          {
            "duration": 0.3947365000000005,
            "durationTicks": 512,
            "midi": 60,
            "name": "C4",
            "ticks": 49664,
            "time": 38.289440500000005,
            "velocity": 0.5039370078740157
          },
          {
            "duration": 0.789473000000001,
            "durationTicks": 1024,
            "midi": 62,
            "name": "D4",
            "ticks": 50176,
            "time": 38.684177000000005,
            "velocity": 0.5039370078740157
          },
          {
            "duration": 0.789473000000001,
            "durationTicks": 1024,
            "midi": 62,
            "name": "D4",
            "ticks": 51200,
            "time": 39.473650000000006,
            "velocity": 0.5039370078740157
          },
          {
            "duration": 1.5789459999999949,
            "durationTicks": 2048,
            "midi": 62,
            "name": "D4",
            "ticks": 52224,
            "time": 40.26312300000001,
            "velocity": 0.5039370078740157
          },
          {
            "duration": 0.789473000000001,
            "durationTicks": 1024,
            "midi": 59,
            "name": "B3",
            "ticks": 54272,
            "time": 41.842069,
            "velocity": 0.5039370078740157
          },
          {
            "duration": 0.789473000000001,
            "durationTicks": 1024,
            "midi": 55,
            "name": "G3",
            "ticks": 55296,
            "time": 42.631542,
            "velocity": 0.5039370078740157
          },
          {
            "duration": 0.789473000000001,
            "durationTicks": 1024,
            "midi": 59,
            "name": "B3",
            "ticks": 56320,
            "time": 43.421015000000004,
            "velocity": 0.5039370078740157
          },
          {
            "duration": 0.789473000000001,
            "durationTicks": 1024,
            "midi": 64,
            "name": "E4",
            "ticks": 57344,
            "time": 44.210488000000005,
            "velocity": 0.5039370078740157
          },
          {
            "duration": 1.578946000000002,
            "durationTicks": 2048,
            "midi": 62,
            "name": "D4",
            "ticks": 58368,
            "time": 44.999961000000006,
            "velocity": 0.5039370078740157
          },
          {
            "duration": 0.7894729999999939,
            "durationTicks": 1024,
            "midi": 62,
            "name": "D4",
            "ticks": 60416,
            "time": 46.57890700000001,
            "velocity": 0.5039370078740157
          },
          {
            "duration": 2.368419000000003,
            "durationTicks": 3072,
            "midi": 62,
            "name": "D4",
            "ticks": 61440,
            "time": 47.36838,
            "velocity": 0.5039370078740157
          },
          {
            "duration": 1.578946000000002,
            "durationTicks": 2048,
            "midi": 60,
            "name": "C4",
            "ticks": 64512,
            "time": 49.736799000000005,
            "velocity": 0.5039370078740157
          },
          {
            "duration": 0.789473000000001,
            "durationTicks": 1024,
            "midi": 62,
            "name": "D4",
            "ticks": 66560,
            "time": 51.31574500000001,
            "velocity": 0.5039370078740157
          },
          {
            "duration": 0.3947365000000005,
            "durationTicks": 512,
            "midi": 62,
            "name": "D4",
            "ticks": 67584,
            "time": 52.10521800000001,
            "velocity": 0.5039370078740157
          },
          {
            "duration": 0.3947365000000005,
            "durationTicks": 512,
            "midi": 60,
            "name": "C4",
            "ticks": 68096,
            "time": 52.49995450000001,
            "velocity": 0.5039370078740157
          },
          {
            "duration": 0.789473000000001,
            "durationTicks": 1024,
            "midi": 59,
            "name": "B3",
            "ticks": 68608,
            "time": 52.89469100000001,
            "velocity": 0.5039370078740157
          },
          {
            "duration": 0.7894729999999939,
            "durationTicks": 1024,
            "midi": 60,
            "name": "C4",
            "ticks": 69632,
            "time": 53.68416400000001,
            "velocity": 0.5039370078740157
          },
          {
            "duration": 1.578946000000002,
            "durationTicks": 2048,
            "midi": 62,
            "name": "D4",
            "ticks": 70656,
            "time": 54.473637000000004,
            "velocity": 0.5039370078740157
          },
          {
            "duration": 0.3947365000000005,
            "durationTicks": 512,
            "midi": 62,
            "name": "D4",
            "ticks": 72704,
            "time": 56.052583000000006,
            "velocity": 0.5039370078740157
          },
          {
            "duration": 0.3947365000000005,
            "durationTicks": 512,
            "midi": 60,
            "name": "C4",
            "ticks": 73216,
            "time": 56.447319500000006,
            "velocity": 0.5039370078740157
          },
          {
            "duration": 0.789473000000001,
            "durationTicks": 1024,
            "midi": 59,
            "name": "B3",
            "ticks": 73728,
            "time": 56.84205600000001,
            "velocity": 0.5039370078740157
          },
          {
            "duration": 0.789473000000001,
            "durationTicks": 1024,
            "midi": 60,
            "name": "C4",
            "ticks": 74752,
            "time": 57.63152900000001,
            "velocity": 0.5039370078740157
          },
          {
            "duration": 0.789473000000001,
            "durationTicks": 1024,
            "midi": 62,
            "name": "D4",
            "ticks": 75776,
            "time": 58.42100200000001,
            "velocity": 0.5039370078740157
          },
          {
            "duration": 1.5789459999999949,
            "durationTicks": 2048,
            "midi": 62,
            "name": "D4",
            "ticks": 76800,
            "time": 59.21047500000001,
            "velocity": 0.5039370078740157
          },
          {
            "duration": 0.789473000000001,
            "durationTicks": 1024,
            "midi": 62,
            "name": "D4",
            "ticks": 78848,
            "time": 60.789421000000004,
            "velocity": 0.5039370078740157
          },
          {
            "duration": 1.578946000000002,
            "durationTicks": 2048,
            "midi": 62,
            "name": "D4",
            "ticks": 79872,
            "time": 61.578894000000005,
            "velocity": 0.5039370078740157
          },
          {
            "duration": 0.789473000000001,
            "durationTicks": 1024,
            "midi": 64,
            "name": "E4",
            "ticks": 81920,
            "time": 63.15784000000001,
            "velocity": 0.5039370078740157
          },
          {
            "duration": 1.578946000000002,
            "durationTicks": 2048,
            "midi": 64,
            "name": "E4",
            "ticks": 82944,
            "time": 63.94731300000001,
            "velocity": 0.5039370078740157
          },
          {
            "duration": 0.3947364999999934,
            "durationTicks": 512,
            "midi": 62,
            "name": "D4",
            "ticks": 84992,
            "time": 65.52625900000001,
            "velocity": 0.5039370078740157
          },
          {
            "duration": 0.3947365000000076,
            "durationTicks": 512,
            "midi": 60,
            "name": "C4",
            "ticks": 85504,
            "time": 65.9209955,
            "velocity": 0.5039370078740157
          },
          {
            "duration": 1.578946000000002,
            "durationTicks": 2048,
            "midi": 59,
            "name": "B3",
            "ticks": 86016,
            "time": 66.31573200000001,
            "velocity": 0.5039370078740157
          }
        ],
        "endOfTrackTicks": 88064
      },
      {
        "channel": 3,
        "controlChanges": {},
        "pitchBends": [],
        "instrument": {
          "family": "piano",
          "number": 0,
          "name": "acoustic grand piano"
        },
        "name": "",
        "notes": [
          {
            "duration": 0.7894730000000001,
            "durationTicks": 1024,
            "midi": 43,
            "name": "G2",
            "ticks": 2048,
            "time": 1.5789460000000002,
            "velocity": 0.5039370078740157
          },
          {
            "duration": 0.7894730000000001,
            "durationTicks": 1024,
            "midi": 55,
            "name": "G3",
            "ticks": 3072,
            "time": 2.3684190000000003,
            "velocity": 0.5039370078740157
          },
          {
            "duration": 0.7894730000000001,
            "durationTicks": 1024,
            "midi": 52,
            "name": "E3",
            "ticks": 4096,
            "time": 3.1578920000000004,
            "velocity": 0.5039370078740157
          },
          {
            "duration": 0.7894730000000001,
            "durationTicks": 1024,
            "midi": 54,
            "name": "F#3",
            "ticks": 5120,
            "time": 3.9473650000000005,
            "velocity": 0.5039370078740157
          },
          {
            "duration": 0.7894730000000001,
            "durationTicks": 1024,
            "midi": 55,
            "name": "G3",
            "ticks": 6144,
            "time": 4.7368380000000005,
            "velocity": 0.5039370078740157
          },
          {
            "duration": 0.7894730000000001,
            "durationTicks": 1024,
            "midi": 50,
            "name": "D3",
            "ticks": 7168,
            "time": 5.526311000000001,
            "velocity": 0.5039370078740157
          },
          {
            "duration": 0.7894730000000001,
            "durationTicks": 1024,
            "midi": 52,
            "name": "E3",
            "ticks": 8192,
            "time": 6.315784000000001,
            "velocity": 0.5039370078740157
          },
          {
            "duration": 0.7894730000000001,
            "durationTicks": 1024,
            "midi": 48,
            "name": "C3",
            "ticks": 9216,
            "time": 7.105257000000001,
            "velocity": 0.5039370078740157
          },
          {
            "duration": 0.3947365000000005,
            "durationTicks": 512,
            "midi": 47,
            "name": "B2",
            "ticks": 10240,
            "time": 7.894730000000001,
            "velocity": 0.5039370078740157
          },
          {
            "duration": 0.3947364999999987,
            "durationTicks": 512,
            "midi": 45,
            "name": "A2",
            "ticks": 10752,
            "time": 8.289466500000001,
            "velocity": 0.5039370078740157
          },
          {
            "duration": 0.789473000000001,
            "durationTicks": 1024,
            "midi": 43,
            "name": "G2",
            "ticks": 11264,
            "time": 8.684203,
            "velocity": 0.5039370078740157
          },
          {
            "duration": 1.5789460000000002,
            "durationTicks": 2048,
            "midi": 50,
            "name": "D3",
            "ticks": 12288,
            "time": 9.473676000000001,
            "velocity": 0.5039370078740157
          },
          {
            "duration": 0.7894729999999992,
            "durationTicks": 1024,
            "midi": 43,
            "name": "G2",
            "ticks": 14336,
            "time": 11.052622000000001,
            "velocity": 0.5039370078740157
          },
          {
            "duration": 0.789473000000001,
            "durationTicks": 1024,
            "midi": 42,
            "name": "F#2",
            "ticks": 15360,
            "time": 11.842095,
            "velocity": 0.5039370078740157
          },
          {
            "duration": 0.789473000000001,
            "durationTicks": 1024,
            "midi": 43,
            "name": "G2",
            "ticks": 16384,
            "time": 12.631568000000001,
            "velocity": 0.5039370078740157
          },
          {
            "duration": 0.7894729999999992,
            "durationTicks": 1024,
            "midi": 45,
            "name": "A2",
            "ticks": 17408,
            "time": 13.421041000000002,
            "velocity": 0.5039370078740157
          },
          {
            "duration": 0.7894729999999992,
            "durationTicks": 1024,
            "midi": 47,
            "name": "B2",
            "ticks": 18432,
            "time": 14.210514000000002,
            "velocity": 0.5039370078740157
          },
          {
            "duration": 0.789473000000001,
            "durationTicks": 1024,
            "midi": 48,
            "name": "C3",
            "ticks": 19456,
            "time": 14.999987,
            "velocity": 0.5039370078740157
          },
          {
            "duration": 0.789473000000001,
            "durationTicks": 1024,
            "midi": 50,
            "name": "D3",
            "ticks": 20480,
            "time": 15.789460000000002,
            "velocity": 0.5039370078740157
          },
          {
            "duration": 1.5789459999999984,
            "durationTicks": 2048,
            "midi": 43,
            "name": "G2",
            "ticks": 21504,
            "time": 16.578933000000003,
            "velocity": 0.5039370078740157
          },
          {
            "duration": 0.789473000000001,
            "durationTicks": 1024,
            "midi": 43,
            "name": "G2",
            "ticks": 23552,
            "time": 18.157879,
            "velocity": 0.5039370078740157
          },
          {
            "duration": 0.789473000000001,
            "durationTicks": 1024,
            "midi": 55,
            "name": "G3",
            "ticks": 24576,
            "time": 18.947352000000002,
            "velocity": 0.5039370078740157
          },
          {
            "duration": 0.789473000000001,
            "durationTicks": 1024,
            "midi": 52,
            "name": "E3",
            "ticks": 25600,
            "time": 19.736825000000003,
            "velocity": 0.5039370078740157
          },
          {
            "duration": 0.7894729999999974,
            "durationTicks": 1024,
            "midi": 54,
            "name": "F#3",
            "ticks": 26624,
            "time": 20.526298000000004,
            "velocity": 0.5039370078740157
          },
          {
            "duration": 0.789473000000001,
            "durationTicks": 1024,
            "midi": 55,
            "name": "G3",
            "ticks": 27648,
            "time": 21.315771,
            "velocity": 0.5039370078740157
          },
          {
            "duration": 0.789473000000001,
            "durationTicks": 1024,
            "midi": 50,
            "name": "D3",
            "ticks": 28672,
            "time": 22.105244000000003,
            "velocity": 0.5039370078740157
          },
          {
            "duration": 0.7894729999999974,
            "durationTicks": 1024,
            "midi": 52,
            "name": "E3",
            "ticks": 29696,
            "time": 22.894717000000004,
            "velocity": 0.5039370078740157
          },
          {
            "duration": 0.789473000000001,
            "durationTicks": 1024,
            "midi": 48,
            "name": "C3",
            "ticks": 30720,
            "time": 23.68419,
            "velocity": 0.5039370078740157
          },
          {
            "duration": 0.3947365000000005,
            "durationTicks": 512,
            "midi": 47,
            "name": "B2",
            "ticks": 31744,
            "time": 24.473663000000002,
            "velocity": 0.5039370078740157
          },
          {
            "duration": 0.3947365000000005,
            "durationTicks": 512,
            "midi": 45,
            "name": "A2",
            "ticks": 32256,
            "time": 24.868399500000002,
            "velocity": 0.5039370078740157
          },
          {
            "duration": 0.789473000000001,
            "durationTicks": 1024,
            "midi": 43,
            "name": "G2",
            "ticks": 32768,
            "time": 25.263136000000003,
            "velocity": 0.5039370078740157
          },
          {
            "duration": 1.5789459999999984,
            "durationTicks": 2048,
            "midi": 50,
            "name": "D3",
            "ticks": 33792,
            "time": 26.052609000000004,
            "velocity": 0.5039370078740157
          },
          {
            "duration": 0.789473000000001,
            "durationTicks": 1024,
            "midi": 43,
            "name": "G2",
            "ticks": 35840,
            "time": 27.631555000000002,
            "velocity": 0.5039370078740157
          },
          {
            "duration": 0.789473000000001,
            "durationTicks": 1024,
            "midi": 42,
            "name": "F#2",
            "ticks": 36864,
            "time": 28.421028000000003,
            "velocity": 0.5039370078740157
          },
          {
            "duration": 0.7894729999999974,
            "durationTicks": 1024,
            "midi": 43,
            "name": "G2",
            "ticks": 37888,
            "time": 29.210501000000004,
            "velocity": 0.5039370078740157
          },
          {
            "duration": 0.789473000000001,
            "durationTicks": 1024,
            "midi": 45,
            "name": "A2",
            "ticks": 38912,
            "time": 29.999974,
            "velocity": 0.5039370078740157
          },
          {
            "duration": 0.789473000000001,
            "durationTicks": 1024,
            "midi": 47,
            "name": "B2",
            "ticks": 39936,
            "time": 30.789447000000003,
            "velocity": 0.5039370078740157
          },
          {
            "duration": 0.789473000000001,
            "durationTicks": 1024,
            "midi": 48,
            "name": "C3",
            "ticks": 40960,
            "time": 31.578920000000004,
            "velocity": 0.5039370078740157
          },
          {
            "duration": 0.789473000000001,
            "durationTicks": 1024,
            "midi": 50,
            "name": "D3",
            "ticks": 41984,
            "time": 32.368393000000005,
            "velocity": 0.5039370078740157
          },
          {
            "duration": 1.5789459999999949,
            "durationTicks": 2048,
            "midi": 43,
            "name": "G2",
            "ticks": 43008,
            "time": 33.157866000000006,
            "velocity": 0.5039370078740157
          },
          {
            "duration": 0.789473000000001,
            "durationTicks": 1024,
            "midi": 43,
            "name": "G2",
            "ticks": 45056,
            "time": 34.736812,
            "velocity": 0.5039370078740157
          },
          {
            "duration": 0.789473000000001,
            "durationTicks": 1024,
            "midi": 43,
            "name": "G2",
            "ticks": 46080,
            "time": 35.526285,
            "velocity": 0.5039370078740157
          },
          {
            "duration": 0.789473000000001,
            "durationTicks": 1024,
            "midi": 45,
            "name": "A2",
            "ticks": 47104,
            "time": 36.315758,
            "velocity": 0.5039370078740157
          },
          {
            "duration": 0.789473000000001,
            "durationTicks": 1024,
            "midi": 47,
            "name": "B2",
            "ticks": 48128,
            "time": 37.105231,
            "velocity": 0.5039370078740157
          },
          {
            "duration": 1.1842095000000015,
            "durationTicks": 1536,
            "midi": 47,
            "name": "B2",
            "ticks": 49152,
            "time": 37.894704000000004,
            "velocity": 0.5039370078740157
          },
          {
            "duration": 0.3947365000000005,
            "durationTicks": 512,
            "midi": 45,
            "name": "A2",
            "ticks": 50688,
            "time": 39.078913500000006,
            "velocity": 0.5039370078740157
          },
          {
            "duration": 0.789473000000001,
            "durationTicks": 1024,
            "midi": 43,
            "name": "G2",
            "ticks": 51200,
            "time": 39.473650000000006,
            "velocity": 0.5039370078740157
          },
          {
            "duration": 1.5789459999999949,
            "durationTicks": 2048,
            "midi": 50,
            "name": "D3",
            "ticks": 52224,
            "time": 40.26312300000001,
            "velocity": 0.5039370078740157
          },
          {
            "duration": 1.578946000000002,
            "durationTicks": 2048,
            "midi": 52,
            "name": "E3",
            "ticks": 54272,
            "time": 41.842069,
            "velocity": 0.5039370078740157
          },
          {
            "duration": 0.789473000000001,
            "durationTicks": 1024,
            "midi": 50,
            "name": "D3",
            "ticks": 56320,
            "time": 43.421015000000004,
            "velocity": 0.5039370078740157
          },
          {
            "duration": 0.789473000000001,
            "durationTicks": 1024,
            "midi": 48,
            "name": "C3",
            "ticks": 57344,
            "time": 44.210488000000005,
            "velocity": 0.5039370078740157
          },
          {
            "duration": 1.1842095000000015,
            "durationTicks": 1536,
            "midi": 47,
            "name": "B2",
            "ticks": 58368,
            "time": 44.999961000000006,
            "velocity": 0.5039370078740157
          },
          {
            "duration": 0.3947365000000005,
            "durationTicks": 512,
            "midi": 48,
            "name": "C3",
            "ticks": 59904,
            "time": 46.18417050000001,
            "velocity": 0.5039370078740157
          },
          {
            "duration": 0.7894729999999939,
            "durationTicks": 1024,
            "midi": 50,
            "name": "D3",
            "ticks": 60416,
            "time": 46.57890700000001,
            "velocity": 0.5039370078740157
          },
          {
            "duration": 0.3947365000000005,
            "durationTicks": 512,
            "midi": 43,
            "name": "G2",
            "ticks": 61440,
            "time": 47.36838,
            "velocity": 0.5039370078740157
          },
          {
            "duration": 0.3947365000000005,
            "durationTicks": 512,
            "midi": 45,
            "name": "A2",
            "ticks": 61952,
            "time": 47.7631165,
            "velocity": 0.5039370078740157
          },
          {
            "duration": 0.789473000000001,
            "durationTicks": 1024,
            "midi": 47,
            "name": "B2",
            "ticks": 62464,
            "time": 48.157853,
            "velocity": 0.5039370078740157
          },
          {
            "duration": 0.789473000000001,
            "durationTicks": 1024,
            "midi": 43,
            "name": "G2",
            "ticks": 63488,
            "time": 48.947326000000004,
            "velocity": 0.5039370078740157
          },
          {
            "duration": 1.578946000000002,
            "durationTicks": 2048,
            "midi": 48,
            "name": "C3",
            "ticks": 64512,
            "time": 49.736799000000005,
            "velocity": 0.5039370078740157
          },
          {
            "duration": 0.789473000000001,
            "durationTicks": 1024,
            "midi": 43,
            "name": "G2",
            "ticks": 66560,
            "time": 51.31574500000001,
            "velocity": 0.5039370078740157
          },
          {
            "duration": 0.789473000000001,
            "durationTicks": 1024,
            "midi": 42,
            "name": "F#2",
            "ticks": 67584,
            "time": 52.10521800000001,
            "velocity": 0.5039370078740157
          },
          {
            "duration": 0.789473000000001,
            "durationTicks": 1024,
            "midi": 43,
            "name": "G2",
            "ticks": 68608,
            "time": 52.89469100000001,
            "velocity": 0.5039370078740157
          },
          {
            "duration": 0.7894729999999939,
            "durationTicks": 1024,
            "midi": 45,
            "name": "A2",
            "ticks": 69632,
            "time": 53.68416400000001,
            "velocity": 0.5039370078740157
          },
          {
            "duration": 0.789473000000001,
            "durationTicks": 1024,
            "midi": 47,
            "name": "B2",
            "ticks": 70656,
            "time": 54.473637000000004,
            "velocity": 0.5039370078740157
          },
          {
            "duration": 0.789473000000001,
            "durationTicks": 1024,
            "midi": 43,
            "name": "G2",
            "ticks": 71680,
            "time": 55.263110000000005,
            "velocity": 0.5039370078740157
          },
          {
            "duration": 0.789473000000001,
            "durationTicks": 1024,
            "midi": 50,
            "name": "D3",
            "ticks": 72704,
            "time": 56.052583000000006,
            "velocity": 0.5039370078740157
          },
          {
            "duration": 0.3947365000000005,
            "durationTicks": 512,
            "midi": 52,
            "name": "E3",
            "ticks": 73728,
            "time": 56.84205600000001,
            "velocity": 0.5039370078740157
          },
          {
            "duration": 0.3947365000000005,
            "durationTicks": 512,
            "midi": 50,
            "name": "D3",
            "ticks": 74240,
            "time": 57.23679250000001,
            "velocity": 0.5039370078740157
          },
          {
            "duration": 0.3947365000000005,
            "durationTicks": 512,
            "midi": 48,
            "name": "C3",
            "ticks": 74752,
            "time": 57.63152900000001,
            "velocity": 0.5039370078740157
          },
          {
            "duration": 0.3947365000000005,
            "durationTicks": 512,
            "midi": 47,
            "name": "B2",
            "ticks": 75264,
            "time": 58.02626550000001,
            "velocity": 0.5039370078740157
          },
          {
            "duration": 0.3947365000000005,
            "durationTicks": 512,
            "midi": 45,
            "name": "A2",
            "ticks": 75776,
            "time": 58.42100200000001,
            "velocity": 0.5039370078740157
          },
          {
            "duration": 0.3947365000000005,
            "durationTicks": 512,
            "midi": 43,
            "name": "G2",
            "ticks": 76288,
            "time": 58.81573850000001,
            "velocity": 0.5039370078740157
          },
          {
            "duration": 1.5789459999999949,
            "durationTicks": 2048,
            "midi": 50,
            "name": "D3",
            "ticks": 76800,
            "time": 59.21047500000001,
            "velocity": 0.5039370078740157
          },
          {
            "duration": 1.578946000000002,
            "durationTicks": 2048,
            "midi": 55,
            "name": "G3",
            "ticks": 78848,
            "time": 60.789421000000004,
            "velocity": 0.5039370078740157
          },
          {
            "duration": 0.789473000000001,
            "durationTicks": 1024,
            "midi": 54,
            "name": "F#3",
            "ticks": 80896,
            "time": 62.368367000000006,
            "velocity": 0.5039370078740157
          },
          {
            "duration": 0.789473000000001,
            "durationTicks": 1024,
            "midi": 52,
            "name": "E3",
            "ticks": 81920,
            "time": 63.15784000000001,
            "velocity": 0.5039370078740157
          },
          {
            "duration": 0.3947364999999934,
            "durationTicks": 512,
            "midi": 52,
            "name": "E3",
            "ticks": 82944,
            "time": 63.94731300000001,
            "velocity": 0.5039370078740157
          },
          {
            "duration": 0.3947365000000076,
            "durationTicks": 512,
            "midi": 50,
            "name": "D3",
            "ticks": 83456,
            "time": 64.3420495,
            "velocity": 0.5039370078740157
          },
          {
            "duration": 0.789473000000001,
            "durationTicks": 1024,
            "midi": 48,
            "name": "C3",
            "ticks": 83968,
            "time": 64.73678600000001,
            "velocity": 0.5039370078740157
          },
          {
            "duration": 0.789473000000001,
            "durationTicks": 1024,
            "midi": 50,
            "name": "D3",
            "ticks": 84992,
            "time": 65.52625900000001,
            "velocity": 0.5039370078740157
          },
          {
            "duration": 1.578946000000002,
            "durationTicks": 2048,
            "midi": 43,
            "name": "G2",
            "ticks": 86016,
            "time": 66.31573200000001,
            "velocity": 0.5039370078740157
          }
        ],
        "endOfTrackTicks": 88064
      }
    ]
  }